<?xml version="1.0" standalone="no"?><svg xmlns="http://www.w3.org/2000/svg" viewBox="0 0 1440 320"><path fill="#0099ff" fill-opacity="1" d="M0,288L20,277.3C40,267,80,245,120,208C160,171,200,117,240,117.3C280,117,320,171,360,165.3C400,160,440,96,480,101.3C520,107,560,181,600,186.7C640,192,680,128,720,112C760,96,800,128,840,149.3C880,171,920,181,960,170.7C1000,160,1040,128,1080,122.7C1120,117,1160,139,1200,170.7C1240,203,1280,245,1320,245.3C1360,245,1400,203,1420,181.3L1440,160L1440,0L1420,0C1400,0,1360,0,1320,0C1280,0,1240,0,1200,0C1160,0,1120,0,1080,0C1040,0,1000,0,960,0C920,0,880,0,840,0C800,0,760,0,720,0C680,0,640,0,600,0C560,0,520,0,480,0C440,0,400,0,360,0C320,0,280,0,240,0C200,0,160,0,120,0C80,0,40,0,20,0L0,0Z"></path></svg>