<?xml version="1.0" standalone="no"?><svg xmlns="http://www.w3.org/2000/svg" viewBox="0 0 1440 320"><path fill="#0099ff" fill-opacity="1" d="M0,96L20,117.3C40,139,80,181,120,208C160,235,200,245,240,245.3C280,245,320,235,360,234.7C400,235,440,245,480,240C520,235,560,213,600,224C640,235,680,277,720,250.7C760,224,800,128,840,122.7C880,117,920,203,960,229.3C1000,256,1040,224,1080,181.3C1120,139,1160,85,1200,69.3C1240,53,1280,75,1320,106.7C1360,139,1400,181,1420,202.7L1440,224L1440,320L1420,320C1400,320,1360,320,1320,320C1280,320,1240,320,1200,320C1160,320,1120,320,1080,320C1040,320,1000,320,960,320C920,320,880,320,840,320C800,320,760,320,720,320C680,320,640,320,600,320C560,320,520,320,480,320C440,320,400,320,360,320C320,320,280,320,240,320C200,320,160,320,120,320C80,320,40,320,20,320L0,320Z"></path></svg>